<svg width="42" height="42" viewBox="0 0 42 42" fill="none" xmlns="http://www.w3.org/2000/svg">
<path d="M28 38.5V31.7275C28.0656 30.893 27.9529 30.0542 27.6693 29.2666C27.3856 28.4791 26.9376 27.761 26.355 27.16C31.85 26.5475 37.625 24.465 37.625 14.91C37.6246 12.4667 36.6847 10.1171 35 8.34751C35.7977 6.2099 35.7413 3.84712 34.8425 1.75001C34.8425 1.75001 32.7775 1.13751 28 4.34001C23.989 3.25295 19.761 3.25295 15.75 4.34001C10.9725 1.13751 8.9075 1.75001 8.9075 1.75001C8.00866 3.84712 7.95225 6.2099 8.75 8.34751C7.05272 10.1302 6.11191 12.5011 6.125 14.9625C6.125 24.4475 11.9 26.53 17.395 27.2125C16.8192 27.8075 16.3752 28.517 16.0918 29.2949C15.8084 30.0728 15.6919 30.9016 15.75 31.7275V38.5M15.75 33.25C7 35.875 7 28.875 3.5 28L15.75 33.25Z" stroke="#404040" stroke-width="3" stroke-linecap="round" stroke-linejoin="round"/>
</svg>
