<svg width="24" height="34" viewBox="0 0 24 34" fill="none" xmlns="http://www.w3.org/2000/svg">
<path d="M12 17C12 15.6739 12.5268 14.4021 13.4645 13.4645C14.4021 12.5268 15.6739 12 17 12C18.3261 12 19.5979 12.5268 20.5355 13.4645C21.4732 14.4021 22 15.6739 22 17C22 18.3261 21.4732 19.5979 20.5355 20.5355C19.5979 21.4732 18.3261 22 17 22C15.6739 22 14.4021 21.4732 13.4645 20.5355C12.5268 19.5979 12 18.3261 12 17V17Z" stroke="white" stroke-width="2.5"/>
<path d="M2 27C2 25.6739 2.52678 24.4021 3.46447 23.4645C4.40215 22.5268 5.67392 22 7 22H12V27C12 28.3261 11.4732 29.5979 10.5355 30.5355C9.59785 31.4732 8.32608 32 7 32C5.67392 32 4.40215 31.4732 3.46447 30.5355C2.52678 29.5979 2 28.3261 2 27Z" stroke="white" stroke-width="2.5"/>
<path d="M12 2V12H17C18.3261 12 19.5979 11.4732 20.5355 10.5355C21.4732 9.59785 22 8.32608 22 7C22 5.67392 21.4732 4.40215 20.5355 3.46447C19.5979 2.52678 18.3261 2 17 2L12 2Z" stroke="white" stroke-width="2.5"/>
<path d="M2 7C2 8.32608 2.52678 9.59785 3.46447 10.5355C4.40215 11.4732 5.67392 12 7 12H12V2H7C5.67392 2 4.40215 2.52678 3.46447 3.46447C2.52678 4.40215 2 5.67392 2 7Z" stroke="white" stroke-width="2.5"/>
<path d="M2 17C2 18.3261 2.52678 19.5979 3.46447 20.5355C4.40215 21.4732 5.67392 22 7 22H12V12H7C5.67392 12 4.40215 12.5268 3.46447 13.4645C2.52678 14.4021 2 15.6739 2 17Z" stroke="white" stroke-width="2.5"/>
</svg>
